<svg xmlns="http://www.w3.org/2000/svg" xmlns:xlink="http://www.w3.org/1999/xlink" version="1.1" class="marks" width="913" height="403" viewBox="0 0 913 403"><rect width="913" height="403" fill="white"/><g fill="none" stroke-miterlimit="10" transform="translate(69,55)"><g class="mark-group role-frame root" role="graphics-object" aria-roledescription="group mark container"><g transform="translate(0,0)"><path class="background" aria-hidden="true" d="M0,0h700v300h-700Z"/><g><g class="mark-group role-axis" aria-hidden="true"><g transform="translate(0.5,0.5)"><path class="background" aria-hidden="true" d="M0,0h0v0h0Z" pointer-events="none"/><g><g class="mark-rule role-axis-grid" pointer-events="none"><line transform="translate(0,300)" x2="700" y2="0" stroke="#d0d5dd" stroke-opacity="1" stroke-width="1" opacity="1"/><line transform="translate(0,225)" x2="700" y2="0" stroke="#d0d5dd" stroke-opacity="1" stroke-width="1" opacity="1"/><line transform="translate(0,150)" x2="700" y2="0" stroke="#d0d5dd" stroke-opacity="1" stroke-width="1" opacity="1"/><line transform="translate(0,75)" x2="700" y2="0" stroke="#d0d5dd" stroke-opacity="1" stroke-width="1" opacity="1"/><line transform="translate(0,0)" x2="700" y2="0" stroke="#d0d5dd" stroke-opacity="1" stroke-width="1" opacity="1"/></g></g><path class="foreground" aria-hidden="true" d="" pointer-events="none" display="none"/></g></g><g class="mark-group role-axis" role="graphics-symbol" aria-roledescription="axis" aria-label="X-axis titled 'loss / temperature' for a linear scale with values from 0 to 5"><g transform="translate(0.5,300.5)"><path class="background" aria-hidden="true" d="M0,0h0v0h0Z" pointer-events="none"/><g><g class="mark-rule role-axis-tick" pointer-events="none"><line transform="translate(0,0)" x2="0" y2="5" stroke="#344054" stroke-width="1" opacity="1"/><line transform="translate(140,0)" x2="0" y2="5" stroke="#344054" stroke-width="1" opacity="1"/><line transform="translate(280,0)" x2="0" y2="5" stroke="#344054" stroke-width="1" opacity="1"/><line transform="translate(420,0)" x2="0" y2="5" stroke="#344054" stroke-width="1" opacity="1"/><line transform="translate(560,0)" x2="0" y2="5" stroke="#344054" stroke-width="1" opacity="1"/><line transform="translate(700,0)" x2="0" y2="5" stroke="#344054" stroke-width="1" opacity="1"/></g><g class="mark-text role-axis-label" pointer-events="none"><text text-anchor="middle" transform="translate(0,16)" font-family="-apple-system, BlinkMacSystemFont, Segoe UI, sans-serif" font-size="12px" fill="#52616f" opacity="1">0</text><text text-anchor="middle" transform="translate(140,16)" font-family="-apple-system, BlinkMacSystemFont, Segoe UI, sans-serif" font-size="12px" fill="#52616f" opacity="1">1</text><text text-anchor="middle" transform="translate(280,16)" font-family="-apple-system, BlinkMacSystemFont, Segoe UI, sans-serif" font-size="12px" fill="#52616f" opacity="1">2</text><text text-anchor="middle" transform="translate(420,16)" font-family="-apple-system, BlinkMacSystemFont, Segoe UI, sans-serif" font-size="12px" fill="#52616f" opacity="1">3</text><text text-anchor="middle" transform="translate(560,16)" font-family="-apple-system, BlinkMacSystemFont, Segoe UI, sans-serif" font-size="12px" fill="#52616f" opacity="1">4</text><text text-anchor="middle" transform="translate(700,16)" font-family="-apple-system, BlinkMacSystemFont, Segoe UI, sans-serif" font-size="12px" fill="#52616f" opacity="1">5</text></g><g class="mark-rule role-axis-domain" pointer-events="none"><line transform="translate(0,0)" x2="700" y2="0" stroke="#344054" stroke-width="1" opacity="1"/></g><g class="mark-text role-axis-title" pointer-events="none"><text text-anchor="middle" transform="translate(350,33)" font-family="-apple-system, BlinkMacSystemFont, Segoe UI, sans-serif" font-size="14px" font-weight="600" fill="#344054" opacity="1">loss / temperature</text></g></g><path class="foreground" aria-hidden="true" d="" pointer-events="none" display="none"/></g></g><g class="mark-group role-axis" role="graphics-symbol" aria-roledescription="axis" aria-label="Y-axis titled '채택률' for a linear scale with values from 0 to 100"><g transform="translate(0.5,0.5)"><path class="background" aria-hidden="true" d="M0,0h0v0h0Z" pointer-events="none"/><g><g class="mark-rule role-axis-tick" pointer-events="none"><line transform="translate(0,300)" x2="-5" y2="0" stroke="#344054" stroke-width="1" opacity="1"/><line transform="translate(0,225)" x2="-5" y2="0" stroke="#344054" stroke-width="1" opacity="1"/><line transform="translate(0,150)" x2="-5" y2="0" stroke="#344054" stroke-width="1" opacity="1"/><line transform="translate(0,75)" x2="-5" y2="0" stroke="#344054" stroke-width="1" opacity="1"/><line transform="translate(0,0)" x2="-5" y2="0" stroke="#344054" stroke-width="1" opacity="1"/></g><g class="mark-text role-axis-label" pointer-events="none"><text text-anchor="end" transform="translate(-7,304)" font-family="-apple-system, BlinkMacSystemFont, Segoe UI, sans-serif" font-size="12px" fill="#52616f" opacity="1">0%</text><text text-anchor="end" transform="translate(-7,229)" font-family="-apple-system, BlinkMacSystemFont, Segoe UI, sans-serif" font-size="12px" fill="#52616f" opacity="1">25%</text><text text-anchor="end" transform="translate(-7,154)" font-family="-apple-system, BlinkMacSystemFont, Segoe UI, sans-serif" font-size="12px" fill="#52616f" opacity="1">50%</text><text text-anchor="end" transform="translate(-7,79)" font-family="-apple-system, BlinkMacSystemFont, Segoe UI, sans-serif" font-size="12px" fill="#52616f" opacity="1">75%</text><text text-anchor="end" transform="translate(-7,4)" font-family="-apple-system, BlinkMacSystemFont, Segoe UI, sans-serif" font-size="12px" fill="#52616f" opacity="1">100%</text></g><g class="mark-rule role-axis-domain" pointer-events="none"><line transform="translate(0,300)" x2="0" y2="-300" stroke="#344054" stroke-width="1" opacity="1"/></g><g class="mark-text role-axis-title" pointer-events="none"><text text-anchor="middle" transform="translate(-36.576171875,150) rotate(-90) translate(0,-3)" font-family="-apple-system, BlinkMacSystemFont, Segoe UI, sans-serif" font-size="14px" font-weight="600" fill="#344054" opacity="1">채택률</text></g></g><path class="foreground" aria-hidden="true" d="" pointer-events="none" display="none"/></g></g><g class="mark-rule role-mark layer_0_marks" role="graphics-object" aria-roledescription="rule mark container"><line aria-label="x: 0.5" role="graphics-symbol" aria-roledescription="rule mark" transform="translate(70,0)" x2="0" y2="300" stroke="#98a2b3" stroke-width="1.5" stroke-dasharray="6,6"/><line aria-label="x: 1" role="graphics-symbol" aria-roledescription="rule mark" transform="translate(140,0)" x2="0" y2="300" stroke="#98a2b3" stroke-width="1.5" stroke-dasharray="6,6"/><line aria-label="x: 3" role="graphics-symbol" aria-roledescription="rule mark" transform="translate(420,0)" x2="0" y2="300" stroke="#98a2b3" stroke-width="1.5" stroke-dasharray="6,6"/></g><g class="mark-group role-scope layer_1_pathgroup" role="graphics-object" aria-roledescription="group mark container"><g transform="translate(0,0)"><path class="background" aria-hidden="true" d="M0,0h700v300h-700Z"/><g><g class="mark-line role-mark layer_1_marks" role="graphics-object" aria-roledescription="line mark container"><path aria-label="loss / temperature: 0; 채택률: 100; method: 정석 exp(-x)" role="graphics-symbol" aria-roledescription="line mark" d="M0,0L3.5,7.407L7,14.631L10.5,21.677L14,28.549L17.5,35.251L21,41.788L24.5,48.163L28,54.381L31.5,60.445L35,66.36L38.5,72.128L42,77.755L45.5,83.242L49,88.594L52.5,93.813L56,98.904L59.5,103.869L63,108.712L66.5,113.434L70,118.041L73.5,122.533L77,126.915L80.5,131.189L84,135.357L87.5,139.422L91,143.386L94.5,147.253L98,151.024L101.5,154.703L105,158.29L108.5,161.789L112,165.201L115.5,168.53L119,171.776L122.5,174.941L126,178.029L129.5,181.041L133,183.978L136.5,186.842L140,189.636L143.5,192.361L147,195.019L150.5,197.611L154,200.139L157.5,202.604L161,205.009L164.5,207.354L168,209.642L171.5,211.873L175,214.049L178.5,216.171L182,218.24L185.5,220.259L189,222.228L192.5,224.148L196,226.021L199.5,227.847L203,229.629L206.5,231.366L210,233.061L213.5,234.714L217,236.326L220.5,237.898L224,239.431L227.5,240.926L231,242.385L234.5,243.808L238,245.195L241.5,246.548L245,247.868L248.5,249.155L252,250.41L255.5,251.635L259,252.829L262.5,253.994L266,255.129L269.5,256.237L273,257.318L276.5,258.372L280,259.399L283.5,260.402L287,261.38L290.5,262.333L294,263.263L297.5,264.17L301,265.055L304.5,265.918L308,266.759L311.5,267.58L315,268.38L318.5,269.161L322,269.922L325.5,270.665L329,271.389L332.5,272.096L336,272.785L339.5,273.457L343,274.112L346.5,274.751L350,275.375L353.5,275.983L357,276.576L360.5,277.154L364,277.718L367.5,278.268L371,278.805L374.5,279.328L378,279.838L381.5,280.336L385,280.822L388.5,281.295L392,281.757L395.5,282.207L399,282.647L402.5,283.075L406,283.493L409.5,283.901L413,284.298L416.5,284.686L420,285.064L423.5,285.433L427,285.792L430.5,286.143L434,286.485L437.5,286.819L441,287.144L444.5,287.462L448,287.771L451.5,288.073L455,288.368L458.5,288.655L462,288.935L465.5,289.208L469,289.475L472.5,289.735L476,289.988L479.5,290.235L483,290.476L486.5,290.711L490,290.941L493.5,291.164L497,291.383L500.5,291.595L504,291.803L507.5,292.005L511,292.203L514.5,292.395L518,292.583L521.5,292.766L525,292.945L528.5,293.119L532,293.289L535.5,293.454L539,293.616L542.5,293.774L546,293.927L549.5,294.077L553,294.224L556.5,294.366L560,294.505L563.5,294.641L567,294.773L570.5,294.902L574,295.028L577.5,295.151L581,295.271L584.5,295.387L588,295.501L591.5,295.612L595,295.721L598.5,295.826L602,295.929L605.5,296.03L609,296.128L612.5,296.224L616,296.317L619.5,296.408L623,296.496L626.5,296.583L630,296.667L633.5,296.75L637,296.83L640.5,296.908L644,296.984L647.5,297.059L651,297.132L654.5,297.202L658,297.271L661.5,297.339L665,297.404L668.5,297.469L672,297.531L675.5,297.592L679,297.651L682.5,297.709L686,297.766L689.5,297.821L693,297.875L696.5,297.927L700,297.979" stroke="#c2410c" stroke-width="4"/></g></g><path class="foreground" aria-hidden="true" d="" display="none"/></g><g transform="translate(0,0)"><path class="background" aria-hidden="true" d="M0,0h700v300h-700Z"/><g><g class="mark-line role-mark layer_1_marks" role="graphics-object" aria-roledescription="line mark container"><path aria-label="loss / temperature: 0; 채택률: 100; method: 선형 보정 근사" role="graphics-symbol" aria-roledescription="line mark" d="M0,0L3.5,3.75L7,7.5L10.5,11.25L14,15L17.5,18.75L21,22.5L24.5,26.25L28,30L31.5,33.75L35,37.5L38.5,41.25L42,45L45.5,48.75L49,52.5L52.5,56.25L56,60L59.5,63.75L63,67.5L66.5,71.25L70,75L73.5,78.75L77,82.5L80.5,86.25L84,90L87.5,93.75L91,97.5L94.5,101.25L98,105L101.5,108.75L105,112.5L108.5,116.25L112,120L115.5,123.75L119,127.5L122.5,131.25L126,135L129.5,138.75L133,142.5L136.5,146.25L140,150L143.5,151.875L147,153.75L150.5,155.625L154,157.5L157.5,159.375L161,161.25L164.5,163.125L168,165L171.5,166.875L175,168.75L178.5,170.625L182,172.5L185.5,174.375L189,176.25L192.5,178.125L196,180L199.5,181.875L203,183.75L206.5,185.625L210,187.5L213.5,189.375L217,191.25L220.5,193.125L224,195L227.5,196.875L231,198.75L234.5,200.625L238,202.5L241.5,204.375L245,206.25L248.5,208.125L252,210L255.5,211.875L259,213.75L262.5,215.625L266,217.5L269.5,219.375L273,221.25L276.5,223.125L280,225L283.5,225.937L287,226.875L290.5,227.813L294,228.75L297.5,229.688L301,230.625L304.5,231.563L308,232.5L311.5,233.438L315,234.375L318.5,235.312L322,236.25L325.5,237.188L329,238.125L332.5,239.063L336,240L339.5,240.938L343,241.875L346.5,242.813L350,243.75L353.5,244.688L357,245.625L360.5,246.563L364,247.5L367.5,248.438L371,249.375L374.5,250.313L378,251.25L381.5,252.188L385,253.125L388.5,254.063L392,255L395.5,255.938L399,256.875L402.5,257.813L406,258.75L409.5,259.688L413,260.625L416.5,261.563L420,262.5L423.5,262.969L427,263.438L430.5,263.906L434,264.375L437.5,264.844L441,265.313L444.5,265.781L448,266.25L451.5,266.719L455,267.188L458.5,267.656L462,268.125L465.5,268.594L469,269.063L472.5,269.531L476,270L479.5,270.469L483,270.938L486.5,271.406L490,271.875L493.5,272.344L497,272.813L500.5,273.281L504,273.75L507.5,274.219L511,274.688L514.5,275.156L518,275.625L521.5,276.094L525,276.563L528.5,277.031L532,277.5L535.5,277.969L539,278.438L542.5,278.906L546,279.375L549.5,279.844L553,280.313L556.5,280.781L560,281.25L563.5,281.484L567,281.719L570.5,281.953L574,282.188L577.5,282.422L581,282.656L584.5,282.891L588,283.125L591.5,283.359L595,283.594L598.5,283.828L602,284.063L605.5,284.297L609,284.531L612.5,284.766L616,285L619.5,285.234L623,285.469L626.5,285.703L630,285.938L633.5,286.172L637,286.406L640.5,286.641L644,286.875L647.5,287.109L651,287.344L654.5,287.578L658,287.813L661.5,288.047L665,288.281L668.5,288.516L672,288.75L675.5,288.984L679,289.219L682.5,289.453L686,289.688L689.5,289.922L693,290.156L696.5,290.391L700,290.625" stroke="#2f6f5e" stroke-width="4"/></g></g><path class="foreground" aria-hidden="true" d="" display="none"/></g></g><g class="mark-group role-scope layer_2_pathgroup" role="graphics-object" aria-roledescription="group mark container"><g transform="translate(0,0)"><path class="background" aria-hidden="true" d="M0,0h700v300h-700Z"/><g><g class="mark-line role-mark layer_2_marks" role="graphics-object" aria-roledescription="line mark container"><path aria-label="loss / temperature: 0; 채택률: 100; method: 보정 없음" role="graphics-symbol" aria-roledescription="line mark" d="M0,0L140,0L140,150L280,150L280,225L420,225L420,262.5L560,262.5L560,281.25L700,281.25L700,290.625" stroke="#2563eb" stroke-width="4"/></g></g><path class="foreground" aria-hidden="true" d="" display="none"/></g></g><g class="mark-symbol role-mark layer_3_marks" role="graphics-object" aria-roledescription="symbol mark container"><path aria-label="x: 0.5; probability: 60.6530659713; method: 정석 exp(-x)" role="graphics-symbol" aria-roledescription="point" transform="translate(70,118.04080208620998)" d="M4.472,0A4.472,4.472,0,1,1,-4.472,0A4.472,4.472,0,1,1,4.472,0" fill="#c2410c" stroke="white" stroke-width="2" opacity="0.7"/><path aria-label="x: 0.5; probability: 75; method: 선형 보정 근사" role="graphics-symbol" aria-roledescription="point" transform="translate(70,75)" d="M4.472,0A4.472,4.472,0,1,1,-4.472,0A4.472,4.472,0,1,1,4.472,0" fill="#2f6f5e" stroke="white" stroke-width="2" opacity="0.7"/><path aria-label="x: 0.5; probability: 100; method: 보정 없음" role="graphics-symbol" aria-roledescription="point" transform="translate(70,0)" d="M4.472,0A4.472,4.472,0,1,1,-4.472,0A4.472,4.472,0,1,1,4.472,0" fill="#2563eb" stroke="white" stroke-width="2" opacity="0.7"/><path aria-label="x: 1; probability: 36.7879441171; method: 정석 exp(-x)" role="graphics-symbol" aria-roledescription="point" transform="translate(140,189.6361676485673)" d="M4.472,0A4.472,4.472,0,1,1,-4.472,0A4.472,4.472,0,1,1,4.472,0" fill="#c2410c" stroke="white" stroke-width="2" opacity="0.7"/><path aria-label="x: 1; probability: 50; method: 선형 보정 근사" role="graphics-symbol" aria-roledescription="point" transform="translate(140,150)" d="M4.472,0A4.472,4.472,0,1,1,-4.472,0A4.472,4.472,0,1,1,4.472,0" fill="#2f6f5e" stroke="white" stroke-width="2" opacity="0.7"/><path aria-label="x: 1; probability: 50; method: 보정 없음" role="graphics-symbol" aria-roledescription="point" transform="translate(140,150)" d="M4.472,0A4.472,4.472,0,1,1,-4.472,0A4.472,4.472,0,1,1,4.472,0" fill="#2563eb" stroke="white" stroke-width="2" opacity="0.7"/><path aria-label="x: 3; probability: 4.97870683679; method: 정석 exp(-x)" role="graphics-symbol" aria-roledescription="point" transform="translate(420,285.06387948964084)" d="M4.472,0A4.472,4.472,0,1,1,-4.472,0A4.472,4.472,0,1,1,4.472,0" fill="#c2410c" stroke="white" stroke-width="2" opacity="0.7"/><path aria-label="x: 3; probability: 12.5; method: 선형 보정 근사" role="graphics-symbol" aria-roledescription="point" transform="translate(420,262.5)" d="M4.472,0A4.472,4.472,0,1,1,-4.472,0A4.472,4.472,0,1,1,4.472,0" fill="#2f6f5e" stroke="white" stroke-width="2" opacity="0.7"/><path aria-label="x: 3; probability: 12.5; method: 보정 없음" role="graphics-symbol" aria-roledescription="point" transform="translate(420,262.5)" d="M4.472,0A4.472,4.472,0,1,1,-4.472,0A4.472,4.472,0,1,1,4.472,0" fill="#2563eb" stroke="white" stroke-width="2" opacity="0.7"/></g><g class="mark-text role-mark layer_4_marks" role="graphics-object" aria-roledescription="text mark container"><text aria-label="x: 0.62; probability: 90; label: 0.5T: 보정 75%, 없음 100%" role="graphics-symbol" aria-roledescription="text mark" text-anchor="start" transform="translate(94.8,33.99999999999999)" font-family="-apple-system, BlinkMacSystemFont, Segoe UI, sans-serif" font-size="12px" fill="#344054">0.5T: 보정 75%, 없음 100%</text><text aria-label="x: 1.13; probability: 66; label: T: exp 37%, 보정 50%" role="graphics-symbol" aria-roledescription="text mark" text-anchor="start" transform="translate(166.2,105.99999999999999)" font-family="-apple-system, BlinkMacSystemFont, Segoe UI, sans-serif" font-size="12px" fill="#344054">T: exp 37%, 보정 50%</text><text aria-label="x: 3.08; probability: 28; label: 3T: exp 5%, 보정 12%" role="graphics-symbol" aria-roledescription="text mark" text-anchor="start" transform="translate(439.2,220)" font-family="-apple-system, BlinkMacSystemFont, Segoe UI, sans-serif" font-size="12px" fill="#344054">3T: exp 5%, 보정 12%</text></g><g class="mark-group role-legend" role="graphics-symbol" aria-roledescription="legend" aria-label="Symbol legend for fill color and stroke color with 3 values: 정석 exp(-x), 선형 보정 근사, 보정 없음"><g transform="translate(722,0)"><path class="background" aria-hidden="true" d="M8.5,0.5L95.5,0.5C99.915320195952,0.5,103.5,4.084679804048,103.5,8.5L103.5,72.5C103.5,76.915320195952,99.915320195952,80.5,95.5,80.5L8.5,80.5C4.084679804048,80.5,0.5,76.915320195952,0.5,72.5L0.5,8.5C0.5,4.084679804048,4.084679804048,0.5,8.5,0.5Z" pointer-events="none" fill="#f8fafc" stroke="#d0d5dd"/><g><g class="mark-group role-legend-entry"><g transform="translate(8,8)"><path class="background" aria-hidden="true" d="M0,0h0v0h0Z" pointer-events="none"/><g><g class="mark-group role-scope" role="graphics-object" aria-roledescription="group mark container"><g transform="translate(0,0)"><path class="background" aria-hidden="true" d="M0,0h86.162109375v19.5h-86.162109375Z" pointer-events="none" opacity="1"/><g><g class="mark-symbol role-legend-symbol" pointer-events="none"><path transform="translate(12.5,12.5)" d="M-10.247,0L10.247,0" fill="#c2410c" stroke="#c2410c" stroke-width="4" opacity="1"/></g><g class="mark-text role-legend-label" pointer-events="none"><text text-anchor="start" transform="translate(29,16.5)" font-family="-apple-system, BlinkMacSystemFont, Segoe UI, sans-serif" font-size="13px" fill="#344054" opacity="1">정석 exp(-x)</text></g></g><path class="foreground" aria-hidden="true" d="" pointer-events="none" display="none"/></g><g transform="translate(0,22)"><path class="background" aria-hidden="true" d="M0,0h86.162109375v19.5h-86.162109375Z" pointer-events="none" opacity="1"/><g><g class="mark-symbol role-legend-symbol" pointer-events="none"><path transform="translate(12.5,12.5)" d="M-10.247,0L10.247,0" fill="#2f6f5e" stroke="#2f6f5e" stroke-width="4" opacity="1"/></g><g class="mark-text role-legend-label" pointer-events="none"><text text-anchor="start" transform="translate(29,16.5)" font-family="-apple-system, BlinkMacSystemFont, Segoe UI, sans-serif" font-size="13px" fill="#344054" opacity="1">선형 보정 근사</text></g></g><path class="foreground" aria-hidden="true" d="" pointer-events="none" display="none"/></g><g transform="translate(0,44)"><path class="background" aria-hidden="true" d="M0,0h86.162109375v19.5h-86.162109375Z" pointer-events="none" opacity="1"/><g><g class="mark-symbol role-legend-symbol" pointer-events="none"><path transform="translate(12.5,12.5)" d="M-10.247,0L10.247,0" fill="#2563eb" stroke="#2563eb" stroke-width="4" opacity="1"/></g><g class="mark-text role-legend-label" pointer-events="none"><text text-anchor="start" transform="translate(29,16.5)" font-family="-apple-system, BlinkMacSystemFont, Segoe UI, sans-serif" font-size="13px" fill="#344054" opacity="1">보정 없음</text></g></g><path class="foreground" aria-hidden="true" d="" pointer-events="none" display="none"/></g></g></g><path class="foreground" aria-hidden="true" d="" pointer-events="none" display="none"/></g></g></g><path class="foreground" aria-hidden="true" d="" pointer-events="none" display="none"/></g></g><g class="mark-group role-title"><g transform="translate(-50.576171875,-38.47213595499958)"><path class="background" aria-hidden="true" d="M0,0h0v0h0Z" pointer-events="none"/><g><g class="mark-text role-title-text" role="graphics-symbol" aria-roledescription="title" aria-label="Title text '어닐링 채택 확률 비교'" pointer-events="none"><text text-anchor="start" transform="translate(0,16)" font-family="-apple-system, BlinkMacSystemFont, Segoe UI, sans-serif" font-size="20px" font-weight="700" fill="#1f2933" opacity="1">어닐링 채택 확률 비교</text></g></g><path class="foreground" aria-hidden="true" d="" pointer-events="none" display="none"/></g></g></g><path class="foreground" aria-hidden="true" d="" display="none"/></g></g></g></svg>